<svg width="195" height="195" viewBox="0 0 195 195" fill="none" xmlns="http://www.w3.org/2000/svg">
<circle cx="97.5" cy="97.5" r="93.5" fill="white" stroke="#2FC980" stroke-width="8"/>
<path d="M97 61.6311C109.85 61.6311 120.267 72.0486 120.267 84.8976C120.267 97.7475 109.85 108.165 97 108.165C84.1501 108.165 73.7326 97.7475 73.7326 84.8976C73.7326 72.0486 84.1501 61.6311 97 61.6311ZM95.467 91.3741C95.4005 89.0387 95.5666 87.3221 97.1494 85.4264C98.7314 83.528 101.84 81.9591 101.84 79.2995C101.84 76.7351 99.581 74.8385 97.0865 74.8385C93.9899 74.8385 92.5975 77.0646 92.1597 79.8685L89.0595 79.4891C89.6162 74.9311 92.4184 72.358 97.0341 72.358C101.094 72.358 104.94 74.6969 104.94 79.0984C104.94 83.4231 101.315 84.569 99.2856 87.3265C98.4264 88.4924 98.3871 89.9818 98.3608 91.3741H95.467ZM94.9154 97.4372V93.9927H98.3608V97.4372H94.9154ZM92.0679 114.246L97 120.632L101.932 114.246H92.0679ZM106.51 114.246L98.4587 124.671C97.7499 125.631 96.306 125.662 95.5666 124.703L87.4897 114.246H84.0697C74.9554 114.246 67.7473 121.665 67.7473 130.736H126.253C126.253 121.664 119.045 114.246 109.93 114.246H106.51ZM84.0697 110.612H109.93C120.91 110.612 129.886 119.588 129.886 130.568V132.552C129.886 133.555 129.073 134.369 128.07 134.369H65.9302C64.9269 134.369 64.114 133.555 64.114 132.552V130.568C64.114 119.588 73.0902 110.612 84.0697 110.612ZM97 65.2644C86.1569 65.2644 77.3668 74.0545 77.3668 84.8976C77.3668 95.7407 86.1569 104.531 97 104.531C107.843 104.531 116.633 95.7407 116.633 84.8976C116.633 74.0545 107.843 65.2644 97 65.2644Z" fill="#233A41"/>
</svg>
