<svg width="195" height="195" viewBox="0 0 195 195" fill="none" xmlns="http://www.w3.org/2000/svg">
<circle cx="97.5" cy="97.5" r="93.5" fill="white" stroke="#2FC980" stroke-width="8"/>
<path d="M70.0037 69.7284C85.1811 69.6887 100.359 69.6489 115.536 69.6092C117.502 69.604 119.797 69.3324 121.714 69.7935C123.939 69.3672 125.272 70.3787 125.714 72.8283C127.315 74.3466 127.885 76.1504 127.425 78.2396C127.772 81.5789 127.389 85.1646 127.371 88.5246C127.351 92.3815 127.33 96.2383 127.31 100.095C127.28 105.781 129.027 111.513 121.117 113.278C118.002 113.974 113.923 113.295 110.718 113.302C106.819 113.311 102.919 113.319 99.0193 113.328C92.0413 113.344 85.0313 113.559 78.0586 113.23C76.0223 113.135 73.4697 113.337 71.5699 112.608C69.5649 112.797 68.3967 111.762 68.0655 109.503C66.7697 108.357 66.2289 107.009 66.4432 105.462C65.8674 102.007 66.4807 97.907 66.498 94.4182C66.52 89.9863 64.2305 70.3258 70.6028 69.5023C72.4546 69.263 72.4785 66.3176 70.6028 66.56C62.7567 67.574 63.647 76.0394 63.6166 82.1478C63.5882 87.874 63.5598 93.6002 63.5313 99.3264C63.5145 102.71 62.6151 107.869 64.0652 111.105C67.1369 117.96 78.9497 116.272 85.0047 116.3C97.2831 116.356 109.923 117.038 122.165 116.192C130.27 115.632 130.195 110.983 130.232 103.952C130.263 97.9525 130.295 91.9529 130.327 85.9534C130.35 81.6892 131.629 75.0144 129.678 71.0656C126.33 64.2887 115.064 66.6681 109.031 66.6839C96.0221 66.718 83.0129 66.752 70.0037 66.7861C68.1107 66.7911 68.1071 69.7334 70.0037 69.7284Z" fill="#233A41"/>
<path d="M65.3167 106.833C86.2034 106.884 107.09 106.935 127.977 106.985C129.87 106.99 129.873 104.048 127.977 104.043C107.09 103.992 86.2034 103.941 65.3167 103.891C63.4233 103.886 63.4205 106.828 65.3167 106.833Z" fill="#233A41"/>
<path d="M103.847 84.5119C104.996 84.9648 105.847 85.8413 106.835 86.5479C107.817 87.2502 108.88 87.8117 109.948 88.3704C109.948 87.5235 109.948 86.6766 109.948 85.8298C107.534 87.377 105.12 88.9242 102.706 90.4714C101.117 91.4901 102.59 94.0379 104.191 93.012C106.605 91.4648 109.019 89.9176 111.433 88.3704C112.318 87.8031 112.454 86.3644 111.433 85.8298C109.077 84.5974 107.089 82.644 104.629 81.6747C102.867 80.9804 102.103 83.8246 103.847 84.5119Z" fill="#233A41"/>
<path d="M101.466 77.6938C99.5462 80.6031 98.785 83.7393 97.3293 86.8486C95.7686 90.1822 93.4492 92.9871 90.6491 95.3534C89.2009 96.5772 91.2911 98.6495 92.7296 97.4339C95.4214 95.1592 97.7155 92.471 99.3659 89.3432C101.129 86.0025 101.902 82.368 104.007 79.1789C105.053 77.5939 102.506 76.1185 101.466 77.6938Z" fill="#233A41"/>
<path d="M88.8114 81.399C87.3767 82.3667 85.9223 83.3118 84.5268 84.3358C83.5179 85.0761 81.8565 85.9756 82.0831 87.463C82.2805 88.7581 83.668 89.0875 84.7221 89.3837C85.6129 89.6339 86.025 90.0404 86.668 90.6753C87.1965 91.197 88.0047 91.465 88.4184 92.0802C89.4696 93.6433 92.0196 92.1723 90.959 90.5951C90.227 89.5067 89.096 88.8084 88.1493 87.9274C87.6793 87.49 87.1301 87.146 86.5447 86.8901C86.0248 86.6629 84.9794 86.6361 84.5683 86.2271C84.6944 86.7043 84.8205 87.1814 84.9466 87.6585C84.8083 87.8322 84.8629 87.802 85.1104 87.5677C85.4028 87.3269 85.7033 87.0965 86.0118 86.8763C86.4997 86.5181 86.9977 86.1736 87.4967 85.8311C88.4252 85.1938 89.3628 84.5694 90.2964 83.9396C91.8579 82.8863 90.387 80.3362 88.8114 81.399Z" fill="#233A41"/>
<path d="M95.0667 111.644C95.3573 111.644 95.6479 111.644 95.9385 111.644C97.8317 111.644 97.8348 108.702 95.9385 108.702C95.6479 108.702 95.3573 108.702 95.0667 108.702C93.1734 108.702 93.1703 111.644 95.0667 111.644Z" fill="#233A41"/>
<path d="M86.8647 128.617C89.05 126.119 93.7418 126.999 96.6943 126.976C100.39 126.946 104.249 126.599 107.166 129.326C108.549 130.618 110.634 128.541 109.247 127.245C105.682 123.913 101.323 123.996 96.6943 124.033C92.7633 124.065 87.6711 123.236 84.7842 126.537C83.5423 127.957 85.6152 130.046 86.8647 128.617Z" fill="#233A41"/>
<path d="M102.749 115.948C102.749 118.963 102.749 121.978 102.749 124.993C102.749 126.887 105.692 126.89 105.692 124.993C105.692 121.978 105.692 118.963 105.692 115.948C105.692 114.055 102.749 114.052 102.749 115.948Z" fill="#233A41"/>
<path d="M89.2754 115.51C89.4659 118.636 89.6564 121.762 89.8469 124.887C89.9615 126.768 92.9046 126.781 92.7892 124.887C92.5987 121.762 92.4082 118.636 92.2177 115.51C92.103 113.629 89.1599 113.616 89.2754 115.51Z" fill="#233A41"/>
</svg>
