<svg width="195" height="210" viewBox="0 0 195 210" fill="none" xmlns="http://www.w3.org/2000/svg">
<circle cx="97.5" cy="112.5" r="93.5" fill="white" stroke="#2FC980" stroke-width="8"/>
<path d="M113 140V134C113 130.817 111.736 127.765 109.485 125.515C107.235 123.264 104.183 122 101 122H77C73.8174 122 70.7652 123.264 68.5147 125.515C66.2643 127.765 65 130.817 65 134V140" stroke="black" stroke-width="3.5" stroke-linecap="round" stroke-linejoin="round"/>
<path d="M89 110C95.6274 110 101 104.627 101 98C101 91.3726 95.6274 86 89 86C82.3726 86 77 91.3726 77 98C77 104.627 82.3726 110 89 110Z" stroke="black" stroke-width="3.5" stroke-linecap="round" stroke-linejoin="round"/>
<path d="M131 140V134C130.998 131.341 130.113 128.758 128.484 126.657C126.855 124.555 124.574 123.055 122 122.39" stroke="black" stroke-width="3.5" stroke-linecap="round" stroke-linejoin="round"/>
<path d="M110 86.3899C112.581 87.0508 114.869 88.552 116.503 90.6568C118.137 92.7617 119.024 95.3504 119.024 98.0149C119.024 100.679 118.137 103.268 116.503 105.373C114.869 107.478 112.581 108.979 110 109.64" stroke="black" stroke-width="3.5" stroke-linecap="round" stroke-linejoin="round"/>
<circle cx="155.5" cy="31.5" r="30" fill="#FF8C91" stroke="white" stroke-width="3"/>
<path d="M148.671 25.89C148.771 23.89 149.471 22.35 150.771 21.27C152.091 20.17 153.821 19.62 155.961 19.62C157.421 19.62 158.671 19.88 159.711 20.4C160.751 20.9 161.531 21.59 162.051 22.47C162.591 23.33 162.861 24.31 162.861 25.41C162.861 26.67 162.531 27.74 161.871 28.62C161.231 29.48 160.461 30.06 159.561 30.36V30.48C160.721 30.84 161.621 31.48 162.261 32.4C162.921 33.32 163.251 34.5 163.251 35.94C163.251 37.14 162.971 38.21 162.411 39.15C161.871 40.09 161.061 40.83 159.981 41.37C158.921 41.89 157.641 42.15 156.141 42.15C153.881 42.15 152.041 41.58 150.621 40.44C149.201 39.3 148.451 37.62 148.371 35.4H152.451C152.491 36.38 152.821 37.17 153.441 37.77C154.081 38.35 154.951 38.64 156.051 38.64C157.071 38.64 157.851 38.36 158.391 37.8C158.951 37.22 159.231 36.48 159.231 35.58C159.231 34.38 158.851 33.52 158.091 33C157.331 32.48 156.151 32.22 154.551 32.22H153.681V28.77H154.551C157.391 28.77 158.811 27.82 158.811 25.92C158.811 25.06 158.551 24.39 158.031 23.91C157.531 23.43 156.801 23.19 155.841 23.19C154.901 23.19 154.171 23.45 153.651 23.97C153.151 24.47 152.861 25.11 152.781 25.89H148.671Z" fill="white"/>
</svg>
