<svg width="195" height="210" viewBox="0 0 195 210" fill="none" xmlns="http://www.w3.org/2000/svg">
<circle cx="97.5" cy="112.5" r="93.5" fill="white" stroke="#2FC980" stroke-width="8"/>
<g clip-path="url(#clip0_13_556)">
<path d="M129.34 84H80.222C78.2046 84 76.5621 85.6665 76.5621 87.7136V112.816H65.6599C63.6424 112.816 62 114.483 62 116.53V138.286C62 140.347 63.6424 142 65.6599 142H101.302C103.32 142 104.962 140.333 104.962 138.286V130.544H129.34C131.358 130.544 133 128.878 133 126.831V87.7136C133 85.6665 131.37 84 129.34 84ZM101.328 138.313H65.647V116.517H76.575V126.844C76.575 128.891 78.2175 130.557 80.235 130.557H101.341V138.313H101.328ZM101.328 126.857H80.2091V116.517H101.328V126.857ZM129.366 126.857H104.962V116.53C104.962 114.483 103.32 112.816 101.302 112.816H80.2091V87.7005H129.366V126.857Z" fill="#233A41"/>
<path d="M108.079 111.911L118.412 101.426L122.072 104.943C122.602 105.507 123.313 105.796 124.051 105.796C124.387 105.796 124.723 105.73 125.046 105.599C126.12 105.179 126.818 104.156 126.818 102.988V93.0806C126.818 91.5322 125.577 90.2725 124.051 90.2725H113.717C112.631 90.2725 111.635 90.9286 111.196 91.939C110.756 92.9494 110.937 94.1304 111.674 94.9571L115.761 98.8806L105.505 109.286L108.079 111.911ZM123.171 93.9729V100.915L115.929 93.9729H123.171Z" fill="#233A41"/>
</g>
<circle cx="155.5" cy="31.5" r="30" fill="#FF8C91" stroke="white" stroke-width="3"/>
<path d="M146.493 37.74V34.44L156.303 20.4H161.193V34.08H163.833V37.74H161.193V42H156.993V37.74H146.493ZM157.263 24.9L151.113 34.08H157.263V24.9Z" fill="white"/>
<defs>
<clipPath id="clip0_13_556">
<rect width="71" height="58" fill="white" transform="translate(62 84)"/>
</clipPath>
</defs>
</svg>
